<svg width="14" height="14" viewBox="0 0 14 14" fill="none" xmlns="http://www.w3.org/2000/svg">
<g clip-path="url(#clip0_543_143)">
<path d="M9.91699 1.94835C10.8038 2.46034 11.5402 3.19673 12.0522 4.08352C12.5641 4.9703 12.8337 5.97623 12.8337 7.0002C12.8337 8.02417 12.5641 9.0301 12.0521 9.91688C11.5401 10.8037 10.8037 11.54 9.91693 12.052C9.03014 12.564 8.0242 12.8335 7.00023 12.8335C5.97626 12.8335 4.97034 12.5639 4.08356 12.0519C3.19679 11.5399 2.46041 10.8035 1.94845 9.91672C1.43648 9.02992 1.16697 8.02399 1.16699 7.00002L1.16991 6.81102C1.20258 5.8036 1.49573 4.82183 2.02078 3.96143C2.54584 3.10103 3.28487 2.39137 4.16585 1.90162C5.04682 1.41187 6.03966 1.15875 7.04758 1.16694C8.0555 1.17513 9.0441 1.44435 9.91699 1.94835ZM7.00033 8.75002C6.84562 8.75002 6.69724 8.81148 6.58785 8.92087C6.47845 9.03027 6.41699 9.17864 6.41699 9.33335V9.33918C6.41699 9.49389 6.47845 9.64227 6.58785 9.75166C6.69724 9.86106 6.84562 9.92252 7.00033 9.92252C7.15504 9.92252 7.30341 9.86106 7.4128 9.75166C7.5222 9.64227 7.58366 9.49389 7.58366 9.33918V9.33335C7.58366 9.17864 7.5222 9.03027 7.4128 8.92087C7.30341 8.81148 7.15504 8.75002 7.00033 8.75002ZM7.00033 4.66669C6.84562 4.66669 6.69724 4.72814 6.58785 4.83754C6.47845 4.94694 6.41699 5.09531 6.41699 5.25002V7.58335C6.41699 7.73806 6.47845 7.88643 6.58785 7.99583C6.69724 8.10523 6.84562 8.16669 7.00033 8.16669C7.15504 8.16669 7.30341 8.10523 7.4128 7.99583C7.5222 7.88643 7.58366 7.73806 7.58366 7.58335V5.25002C7.58366 5.09531 7.5222 4.94694 7.4128 4.83754C7.30341 4.72814 7.15504 4.66669 7.00033 4.66669Z" fill="#0073AF"/>
</g>
<defs>
<clipPath id="clip0_543_143">
<rect width="14" height="14" fill="white"/>
</clipPath>
</defs>
</svg>
