<?xml version="1.0" encoding="UTF-8" standalone="no"?>
<svg
   xmlns="http://www.w3.org/2000/svg"
   width="130"
   height="36"
   viewBox="0 0 130 36"
   version="1.1"
   style="fill:none">
  <path
     d="m 28.853263,13.215911 c 0,-3.6913495 -2.72719,-6.6834595 -6.31134,-6.6834595 -3.58416,0 -6.31136,2.99211 -6.31136,6.6834595 v 13.3669 h 1.57797 c 0,-2.7685 2.11955,-5.0124 4.73339,-5.0124 2.61384,0 4.73334,2.2445 4.73334,5.0124 h 1.578 z"
     style="fill:#199bfa" />
  <path
     d="m 37.640363,5.4209115 -4.0526,21.1626995 h 3.5986 l 0.7828,-4.6466 h 4.4718 l 0.7828,4.6466 h 3.7034 l -4.0532,-21.1626995 z m 0.8317,13.6149995 1.7327,-10.2115395 1.7327,10.2115395 z"
     style="clip-rule:evenodd;fill:#ffffff;fill-rule:evenodd" />
  <path
     d="m 54.940263,21.729211 c 0,1.5094 -0.8107,2.2496 -1.9008,2.2496 -1.0902,0 -1.5651,-0.6509 -1.5651,-2.0425 v -10.83286 h -3.466 v 11.30616 c 0,3.0189 1.4534,4.4395 3.5777,4.4395 1.7327,0 2.7949,-0.9177 3.3542,-2.1904 v 1.9236 h 3.466 v -15.47886 h -3.466 z"
     style="fill:#ffffff" />
  <path
     d="m 60.463763,7.9959315 h 3.4654 v 3.1081795 h 2.3758 v 2.69341 h -2.3758 v 8.46429 c 0,1.0656 0.419,1.539 1.3136,1.539 0.4476,0 0.8666,-0.0592 1.0622,-0.1479 v 2.8117 c -0.2794,0.1184 -0.9499,0.2367 -1.7327,0.2367 -2.8787,0 -4.1085,-1.3615 -4.1085,-4.1437 z"
     style="fill:#ffffff" />
  <path
     d="m 72.867263,10.837561 c -3.186,0 -5.478,1.98279 -5.478,5.80105 v 4.4691 c 0,3.759 2.292,5.7418 5.4501,5.7418 3.1581,0 5.5618,-1.9828 5.5618,-5.801 v -4.4691 c 0,-3.78865 -2.3199,-5.74185 -5.5339,-5.74185 z m 2.0406,10.35945 c 0,1.894 -0.6706,2.8413 -2.0406,2.8413 -1.37,0 -2.0126,-0.9473 -2.0126,-2.8413 v -4.7354 c 0,-1.9236 0.699,-2.84132 2.0126,-2.84132 1.3136,0 2.0406,0.91772 2.0406,2.87092 z"
     style="clip-rule:evenodd;fill:#ffffff;fill-rule:evenodd" />
  <path
     d="m 83.599363,12.998291 c 0.5873,-1.18398 1.7333,-2.16087 3.4101,-2.16087 2.4876,0 4.1365,1.77512 4.1365,5.47499 v 5.0022 c 0,3.7295 -1.7327,5.5348 -4.2762,5.5348 -1.6215,0 -2.7675,-0.858 -3.2704,-2.042 v 6.6135 h -3.4659 v -20.31665 h 3.4659 z m 2.0959,11.06952 c 1.2857,0 1.9568,-0.8586 1.9568,-2.723 v -5.0312 c 0,-1.92366 -0.7269,-2.66387 -1.9568,-2.66387 -1.3415,0 -2.1243,0.97689 -2.1243,2.90047 v 4.5875 c 0,1.9236 0.699,2.9301 2.1243,2.9301 z"
     style="clip-rule:evenodd;fill:#ffffff;fill-rule:evenodd" />
  <path
     d="m 100.20536,12.880091 c -0.5309,-1.24316 -1.5093,-2.04253 -3.1308,-2.04253 -2.459597,0 -4.303997,1.80527 -4.303997,5.56435 v 4.9134 c 0,3.7591 1.7327,5.5348 4.136397,5.5348 1.6768,0 2.7391,-0.9769 3.2984,-2.2201 v 1.9532 h 3.4659 v -15.47939 h -3.4659 z m 0.0279,8.22812 c 0,1.9237 -0.7828,2.9301 -2.1244,2.9301 -1.1739,0 -1.8445,-0.7698 -1.8445,-2.6638 v -5.0318 c 0,-1.92361 0.6706,-2.75257 1.9289,-2.75257 1.3415,0 2.0405,1.00647 2.0405,2.98927 z"
     style="clip-rule:evenodd;fill:#ffffff;fill-rule:evenodd" />
  <path
     d="m 110.62676,20.515611 2.2082,-9.41216 h 3.3956 l -5.6151,20.31726 h -3.4772 l 1.7279,-6.0804 -4.2208,-14.23686 h 3.6894 z"
     style="fill:#ffffff" />
</svg>
