<svg width="14" height="14" viewBox="0 0 14 14" fill="none" xmlns="http://www.w3.org/2000/svg">
<g clip-path="url(#clip0_600_63)">
<path d="M9.91699 1.94832C10.8038 2.46031 11.5402 3.1967 12.0522 4.08349C12.5641 4.97027 12.8337 5.9762 12.8337 7.00017C12.8337 8.02414 12.5641 9.03007 12.0521 9.91685C11.5401 10.8036 10.8037 11.54 9.91693 12.052C9.03014 12.564 8.0242 12.8335 7.00023 12.8335C5.97626 12.8335 4.97034 12.5639 4.08356 12.0519C3.19679 11.5399 2.46041 10.8035 1.94845 9.91669C1.43648 9.02989 1.16697 8.02396 1.16699 6.99999L1.16991 6.81099C1.20258 5.80357 1.49573 4.8218 2.02078 3.9614C2.54584 3.101 3.28487 2.39134 4.16585 1.90159C5.04682 1.41184 6.03966 1.15872 7.04758 1.16691C8.0555 1.1751 9.0441 1.44432 9.91699 1.94832ZM7.00033 8.74999C6.84562 8.74999 6.69724 8.81145 6.58785 8.92084C6.47845 9.03024 6.41699 9.17861 6.41699 9.33332V9.33915C6.41699 9.49386 6.47845 9.64224 6.58785 9.75163C6.69724 9.86103 6.84562 9.92249 7.00033 9.92249C7.15504 9.92249 7.30341 9.86103 7.4128 9.75163C7.5222 9.64224 7.58366 9.49386 7.58366 9.33915V9.33332C7.58366 9.17861 7.5222 9.03024 7.4128 8.92084C7.30341 8.81145 7.15504 8.74999 7.00033 8.74999ZM7.00033 4.66665C6.84562 4.66665 6.69724 4.72811 6.58785 4.83751C6.47845 4.94691 6.41699 5.09528 6.41699 5.24999V7.58332C6.41699 7.73803 6.47845 7.8864 6.58785 7.9958C6.69724 8.1052 6.84562 8.16665 7.00033 8.16665C7.15504 8.16665 7.30341 8.1052 7.4128 7.9958C7.5222 7.8864 7.58366 7.73803 7.58366 7.58332V5.24999C7.58366 5.09528 7.5222 4.94691 7.4128 4.83751C7.30341 4.72811 7.15504 4.66665 7.00033 4.66665Z" fill="#0AB548"/>
</g>
<defs>
<clipPath id="clip0_600_63">
<rect width="14" height="14" fill="white"/>
</clipPath>
</defs>
</svg>
