<svg width="24" height="24" viewBox="0 0 24 24" fill="none" xmlns="http://www.w3.org/2000/svg">
<rect y="9.15527e-05" width="24" height="24" fill="white"/>
<rect x="0.5" y="0.500092" width="23" height="23" stroke="black" stroke-opacity="0.1"/>
<g clip-path="url(#clip0_46_1929)">
<path d="M4.5 17.8334H19.5" stroke="#72777C" stroke-width="1.4" stroke-linecap="round" stroke-linejoin="round"/>
<path d="M6.16675 7.83342C6.16675 7.61241 6.25455 7.40045 6.41083 7.24417C6.56711 7.08789 6.77907 7.00009 7.00008 7.00009H17.0001C17.2211 7.00009 17.4331 7.08789 17.5893 7.24417C17.7456 7.40045 17.8334 7.61241 17.8334 7.83342V14.5001C17.8334 14.7211 17.7456 14.9331 17.5893 15.0893C17.4331 15.2456 17.2211 15.3334 17.0001 15.3334H7.00008C6.77907 15.3334 6.56711 15.2456 6.41083 15.0893C6.25455 14.9331 6.16675 14.7211 6.16675 14.5001V7.83342Z" stroke="#72777C" stroke-width="1.4" stroke-linecap="round" stroke-linejoin="round"/>
</g>
<defs>
<clipPath id="clip0_46_1929">
<rect width="20" height="20" fill="white" transform="translate(2 2.00009)"/>
</clipPath>
</defs>
</svg>